<svg width="28" height="28" viewBox="0 0 28 28" fill="none" xmlns="http://www.w3.org/2000/svg">
<path d="M20.2727 0H7.72678C3.46623 0 0 3.4664 0 7.72694V20.2729C0 24.5336 3.46623 27.9998 7.72678 27.9998H20.2727C24.5336 27.9998 27.9998 24.5334 27.9998 20.2729V7.72694C28 3.4664 24.5336 0 20.2727 0ZM25.5157 20.2729C25.5157 23.1638 23.1638 25.5156 20.2729 25.5156H7.72678C4.83607 25.5157 2.48428 23.1638 2.48428 20.2729V7.72694C2.48428 4.83623 4.83607 2.48428 7.72678 2.48428H20.2727C23.1636 2.48428 25.5156 4.83623 25.5156 7.72694V20.2729H25.5157Z" fill="white"/>
<path d="M14 6.78564C10.0217 6.78564 6.78516 10.0222 6.78516 14.0005C6.78516 17.9787 10.0217 21.215 14 21.215C17.9783 21.215 21.2149 17.9787 21.2149 14.0005C21.2149 10.0222 17.9783 6.78564 14 6.78564ZM14 18.7306C11.3917 18.7306 9.26944 16.6087 9.26944 14.0003C9.26944 11.3918 11.3915 9.26976 14 9.26976C16.6085 9.26976 18.7306 11.3918 18.7306 14.0003C18.7306 16.6087 16.6083 18.7306 14 18.7306Z" fill="white"/>
<path d="M21.5174 4.6792C21.0387 4.6792 20.5685 4.87297 20.2305 5.21249C19.8908 5.55035 19.6956 6.02071 19.6956 6.50101C19.6956 6.97981 19.891 7.45 20.2305 7.78952C20.5684 8.12738 21.0387 8.32281 21.5174 8.32281C21.9977 8.32281 22.4664 8.12738 22.8059 7.78952C23.1454 7.45 23.3392 6.97964 23.3392 6.50101C23.3392 6.02071 23.1454 5.55035 22.8059 5.21249C22.468 4.87297 21.9977 4.6792 21.5174 4.6792Z" fill="white"/>
</svg>
