<svg width="132" height="33" viewBox="0 0 132 33" fill="none" xmlns="http://www.w3.org/2000/svg">
<path d="M5.86 22.2C7.38 22.2 8.64 21.76 9.5 20.9C10.34 20.06 10.82 18.82 10.82 17.16V8H7.66V17.02C7.66 18.64 6.94 19.34 5.78 19.34C4.8 19.34 4.02 18.82 3.22 17.94L1.28 20.1C2.24 21.24 3.68 22.2 5.86 22.2ZM18.9091 22.24C22.2491 22.24 24.7291 19.74 24.7291 16.66C24.7291 13.54 22.2691 11.08 18.9491 11.08C15.6091 11.08 13.1291 13.58 13.1291 16.66C13.1291 19.78 15.5891 22.24 18.9091 22.24ZM18.9491 19.62C17.2691 19.62 16.1291 18.24 16.1291 16.66C16.1291 15.04 17.1691 13.7 18.9091 13.7C20.5891 13.7 21.7291 15.08 21.7291 16.66C21.7291 18.28 20.6891 19.62 18.9491 19.62ZM26.9303 22H29.9703V16.02C29.9703 14.58 30.7103 13.84 31.8703 13.84C33.0303 13.84 33.7103 14.58 33.7103 16.02V22H36.7503V15.06C36.7503 12.6 35.4103 11.08 33.1103 11.08C31.5703 11.08 30.6703 11.9 29.9703 12.8V7.4H26.9303V22ZM39.3913 22H42.4313V16.02C42.4313 14.58 43.1712 13.84 44.3313 13.84C45.4913 13.84 46.1713 14.58 46.1713 16.02V22H49.2113V15.06C49.2113 12.6 47.8713 11.08 45.5713 11.08C44.0313 11.08 43.1313 11.9 42.4313 12.8V11.28H39.3913V22ZM54.1192 25.26C55.9392 25.26 56.8192 24.44 57.6392 22.26L61.7592 11.28H58.5992L56.2592 18.58L53.8192 11.28H50.5992L54.7992 22.04C54.5392 22.58 54.2592 22.74 53.7392 22.74C53.3392 22.74 52.8392 22.56 52.4392 22.32L51.4192 24.52C52.1992 24.98 53.0192 25.26 54.1192 25.26ZM63.8714 22H70.5314C73.6914 22 75.7714 20.72 75.7714 18.16C75.7714 16.24 74.7714 15.3 73.1514 14.68C74.1514 14.12 74.9914 13.24 74.9914 11.66C74.9914 10.66 74.6714 9.88 74.0314 9.24C73.2314 8.44 71.9714 8 70.3714 8H63.8714V22ZM66.8714 13.66V10.7H69.9114C71.2114 10.7 71.9314 11.22 71.9314 12.14C71.9314 13.22 71.0714 13.66 69.7114 13.66H66.8714ZM66.8714 19.3V16.22H70.4314C72.0114 16.22 72.7114 16.8 72.7114 17.74C72.7114 18.82 71.8914 19.3 70.5314 19.3H66.8714ZM81.025 22.2C82.505 22.2 83.525 21.66 84.265 20.84V22H87.205V15.78C87.205 14.34 86.845 13.16 86.045 12.36C85.285 11.6 84.085 11.16 82.425 11.16C80.605 11.16 79.445 11.5 78.265 12.02L79.025 14.34C80.005 13.98 80.825 13.76 81.985 13.76C83.505 13.76 84.285 14.46 84.285 15.72V15.9C83.525 15.64 82.745 15.46 81.665 15.46C79.125 15.46 77.345 16.54 77.345 18.88C77.345 21.04 79.005 22.2 81.025 22.2ZM81.945 20.1C80.965 20.1 80.285 19.62 80.285 18.8C80.285 17.8 81.085 17.28 82.385 17.28C83.125 17.28 83.805 17.44 84.325 17.68V18.22C84.325 19.32 83.365 20.1 81.945 20.1ZM89.8209 22H92.8609V18.04C92.8609 15.48 94.1009 14.26 96.1209 14.26H96.2809V11.08C94.4809 11 93.4809 11.96 92.8609 13.44V11.28H89.8209V22ZM104.56 22.2C107.1 22.2 109.44 20.24 109.44 16.66C109.44 13.04 107.06 11.08 104.56 11.08C102.98 11.08 101.96 11.82 101.22 12.82V7.4H98.1803V22H101.22V20.6C101.94 21.46 102.94 22.2 104.56 22.2ZM103.78 19.62C102.36 19.62 101.18 18.44 101.18 16.66C101.18 14.84 102.36 13.66 103.78 13.66C105.2 13.66 106.4 14.84 106.4 16.62C106.4 18.46 105.2 19.62 103.78 19.62ZM116.756 22.24C118.696 22.24 120.136 21.48 121.136 20.24L119.396 18.7C118.556 19.48 117.816 19.8 116.796 19.8C115.436 19.8 114.476 19.08 114.176 17.7H121.636C121.656 17.42 121.676 17.14 121.676 16.9C121.676 13.86 120.036 11.08 116.456 11.08C113.336 11.08 111.156 13.6 111.156 16.66C111.156 19.98 113.536 22.24 116.756 22.24ZM114.136 15.8C114.376 14.42 115.196 13.52 116.456 13.52C117.736 13.52 118.536 14.44 118.716 15.8H114.136ZM123.942 22H126.982V18.04C126.982 15.48 128.222 14.26 130.242 14.26H130.402V11.08C128.602 11 127.602 11.96 126.982 13.44V11.28H123.942V22Z" fill="white"/>
<path d="M6.86 23.2C8.38 23.2 9.64 22.76 10.5 21.9C11.34 21.06 11.82 19.82 11.82 18.16V9H8.66V18.02C8.66 19.64 7.94 20.34 6.78 20.34C5.8 20.34 5.02 19.82 4.22 18.94L2.28 21.1C3.24 22.24 4.68 23.2 6.86 23.2ZM19.9091 23.24C23.2491 23.24 25.7291 20.74 25.7291 17.66C25.7291 14.54 23.2691 12.08 19.9491 12.08C16.6091 12.08 14.1291 14.58 14.1291 17.66C14.1291 20.78 16.5891 23.24 19.9091 23.24ZM19.9491 20.62C18.2691 20.62 17.1291 19.24 17.1291 17.66C17.1291 16.04 18.1691 14.7 19.9091 14.7C21.5891 14.7 22.7291 16.08 22.7291 17.66C22.7291 19.28 21.6891 20.62 19.9491 20.62ZM27.9303 23H30.9703V17.02C30.9703 15.58 31.7103 14.84 32.8703 14.84C34.0303 14.84 34.7103 15.58 34.7103 17.02V23H37.7503V16.06C37.7503 13.6 36.4103 12.08 34.1103 12.08C32.5703 12.08 31.6703 12.9 30.9703 13.8V8.4H27.9303V23ZM40.3913 23H43.4313V17.02C43.4313 15.58 44.1712 14.84 45.3313 14.84C46.4913 14.84 47.1713 15.58 47.1713 17.02V23H50.2113V16.06C50.2113 13.6 48.8713 12.08 46.5713 12.08C45.0313 12.08 44.1313 12.9 43.4313 13.8V12.28H40.3913V23ZM55.1192 26.26C56.9392 26.26 57.8192 25.44 58.6392 23.26L62.7592 12.28H59.5992L57.2592 19.58L54.8192 12.28H51.5992L55.7992 23.04C55.5392 23.58 55.2592 23.74 54.7392 23.74C54.3392 23.74 53.8392 23.56 53.4392 23.32L52.4192 25.52C53.1992 25.98 54.0192 26.26 55.1192 26.26ZM64.8714 23H71.5314C74.6914 23 76.7714 21.72 76.7714 19.16C76.7714 17.24 75.7714 16.3 74.1514 15.68C75.1514 15.12 75.9914 14.24 75.9914 12.66C75.9914 11.66 75.6714 10.88 75.0314 10.24C74.2314 9.44 72.9714 9 71.3714 9H64.8714V23ZM67.8714 14.66V11.7H70.9114C72.2114 11.7 72.9314 12.22 72.9314 13.14C72.9314 14.22 72.0714 14.66 70.7114 14.66H67.8714ZM67.8714 20.3V17.22H71.4314C73.0114 17.22 73.7114 17.8 73.7114 18.74C73.7114 19.82 72.8914 20.3 71.5314 20.3H67.8714ZM82.025 23.2C83.505 23.2 84.525 22.66 85.265 21.84V23H88.205V16.78C88.205 15.34 87.845 14.16 87.045 13.36C86.285 12.6 85.085 12.16 83.425 12.16C81.605 12.16 80.445 12.5 79.265 13.02L80.025 15.34C81.005 14.98 81.825 14.76 82.985 14.76C84.505 14.76 85.285 15.46 85.285 16.72V16.9C84.525 16.64 83.745 16.46 82.665 16.46C80.125 16.46 78.345 17.54 78.345 19.88C78.345 22.04 80.005 23.2 82.025 23.2ZM82.945 21.1C81.965 21.1 81.285 20.62 81.285 19.8C81.285 18.8 82.085 18.28 83.385 18.28C84.125 18.28 84.805 18.44 85.325 18.68V19.22C85.325 20.32 84.365 21.1 82.945 21.1ZM90.8209 23H93.8609V19.04C93.8609 16.48 95.1009 15.26 97.1209 15.26H97.2809V12.08C95.4809 12 94.4809 12.96 93.8609 14.44V12.28H90.8209V23ZM105.56 23.2C108.1 23.2 110.44 21.24 110.44 17.66C110.44 14.04 108.06 12.08 105.56 12.08C103.98 12.08 102.96 12.82 102.22 13.82V8.4H99.1803V23H102.22V21.6C102.94 22.46 103.94 23.2 105.56 23.2ZM104.78 20.62C103.36 20.62 102.18 19.44 102.18 17.66C102.18 15.84 103.36 14.66 104.78 14.66C106.2 14.66 107.4 15.84 107.4 17.62C107.4 19.46 106.2 20.62 104.78 20.62ZM117.756 23.24C119.696 23.24 121.136 22.48 122.136 21.24L120.396 19.7C119.556 20.48 118.816 20.8 117.796 20.8C116.436 20.8 115.476 20.08 115.176 18.7H122.636C122.656 18.42 122.676 18.14 122.676 17.9C122.676 14.86 121.036 12.08 117.456 12.08C114.336 12.08 112.156 14.6 112.156 17.66C112.156 20.98 114.536 23.24 117.756 23.24ZM115.136 16.8C115.376 15.42 116.196 14.52 117.456 14.52C118.736 14.52 119.536 15.44 119.716 16.8H115.136ZM124.942 23H127.982V19.04C127.982 16.48 129.222 15.26 131.242 15.26H131.402V12.08C129.602 12 128.602 12.96 127.982 14.44V12.28H124.942V23Z" fill="white" fill-opacity="0.41"/>
<rect width="132" height="1" fill="white"/>
<rect y="4" width="132" height="1" fill="white"/>
<rect y="28" width="132" height="1" fill="white"/>
<rect y="32" width="132" height="1" fill="white"/>
</svg>

