<svg width="41" height="24" viewBox="0 0 41 24" fill="none" xmlns="http://www.w3.org/2000/svg">
<path d="M39.3016 18.7949C38.0809 17.3307 36.6443 16.0811 35.2851 14.7541C34.0588 13.558 33.9815 12.8642 34.9672 11.4837C36.0431 9.977 37.2001 8.5281 38.2857 7.02822C39.2991 5.62648 40.335 4.22857 40.8682 2.55023C41.2064 1.48246 40.9073 1.01083 39.8123 0.823874C39.6237 0.791157 39.4287 0.789458 39.2366 0.789458L32.7404 0.78181C31.9403 0.769913 31.498 1.11875 31.215 1.82791C30.833 2.78647 30.4391 3.74419 29.9841 4.66919C28.9516 6.76648 27.7984 8.79366 26.1817 10.5102C25.8252 10.8888 25.4309 11.3673 24.8352 11.1701C24.0899 10.8982 23.8702 9.67022 23.8825 9.2551L23.8762 1.75695C23.7317 0.685783 23.4942 0.208199 22.4307 0L15.6825 0.0012748C14.7817 0.0012748 14.33 0.349265 13.849 0.912678C13.5716 1.23815 13.4879 1.44932 14.0581 1.55725C15.1781 1.76969 15.8091 2.49457 15.9765 3.61757C16.245 5.41191 16.2263 7.21347 16.0717 9.01503C16.0262 9.54105 15.9357 10.0658 15.7271 10.557C15.4008 11.329 14.8739 11.4862 14.1817 11.0112C13.555 10.5812 13.1148 9.97445 12.684 9.36515C11.0655 7.07835 9.77428 4.61225 8.72139 2.02081C8.41716 1.27214 7.89241 0.818351 7.09913 0.806029C5.15013 0.775011 3.20071 0.769912 1.2517 0.807728C0.0789897 0.829823 -0.2707 1.39918 0.206884 2.46228C2.32967 7.18415 4.69252 11.7747 7.77684 15.9566C9.36043 18.1027 11.1786 19.9973 13.5274 21.34C16.1894 22.862 19.0549 23.32 22.0729 23.179C23.4861 23.1127 23.9106 22.7451 23.976 21.3366C24.0202 20.3729 24.1294 19.4148 24.6049 18.5489C25.0714 17.6991 25.778 17.5372 26.5925 18.0658C27 18.3305 27.3433 18.6674 27.6675 19.0226C28.4629 19.8928 29.2299 20.7893 30.0554 21.6302C31.0909 22.684 32.3176 23.3064 33.86 23.1794L39.8306 23.1807C40.7926 23.1178 41.2914 21.9383 40.739 20.8646C40.3511 20.1125 39.8421 19.4428 39.3016 18.7949Z" fill="white"/>
</svg>
